<svg width="67" height="68" xmlns="http://www.w3.org/2000/svg" xmlns:xlink="http://www.w3.org/1999/xlink" xml:space="preserve" overflow="hidden"><g transform="translate(-773 -117)"><path d="M6.97917 23.7292 11.8646 23.7292 11.8646 26.5208 6.97917 26.5208Z" transform="matrix(1 0 0 1.01493 773 117)"/><path d="M6.97917 18.1458 11.8646 18.1458 11.8646 20.9375 6.97917 20.9375Z" transform="matrix(1 0 0 1.01493 773 117)"/><path d="M6.97917 29.3125 11.8646 29.3125 11.8646 32.1042 6.97917 32.1042Z" transform="matrix(1 0 0 1.01493 773 117)"/><path d="M6.97917 46.0625 11.8646 46.0625 11.8646 48.8542 6.97917 48.8542Z" transform="matrix(1 0 0 1.01493 773 117)"/><path d="M6.97917 40.4792 11.8646 40.4792 11.8646 43.2708 6.97917 43.2708Z" transform="matrix(1 0 0 1.01493 773 117)"/><path d="M6.97917 34.8958 11.8646 34.8958 11.8646 37.6875 6.97917 37.6875Z" transform="matrix(1 0 0 1.01493 773 117)"/><path d="M55.1354 40.4792 60.0208 40.4792 60.0208 43.2708 55.1354 43.2708Z" transform="matrix(1 0 0 1.01493 773 117)"/><path d="M55.1354 46.0625 60.0208 46.0625 60.0208 48.8542 55.1354 48.8542Z" transform="matrix(1 0 0 1.01493 773 117)"/><path d="M55.1354 34.8958 60.0208 34.8958 60.0208 37.6875 55.1354 37.6875Z" transform="matrix(1 0 0 1.01493 773 117)"/><path d="M55.1354 18.1458 60.0208 18.1458 60.0208 20.9375 55.1354 20.9375Z" transform="matrix(1 0 0 1.01493 773 117)"/><path d="M55.1354 29.3125 60.0208 29.3125 60.0208 32.1042 55.1354 32.1042Z" transform="matrix(1 0 0 1.01493 773 117)"/><path d="M55.1354 23.7292 60.0208 23.7292 60.0208 26.5208 55.1354 26.5208Z" transform="matrix(1 0 0 1.01493 773 117)"/><path d="M34.8958 6.97917 37.6875 6.97917 37.6875 11.8646 34.8958 11.8646Z" transform="matrix(1 0 0 1.01493 773 117)"/><path d="M46.0625 6.97917 48.8542 6.97917 48.8542 11.8646 46.0625 11.8646Z" transform="matrix(1 0 0 1.01493 773 117)"/><path d="M40.4792 6.97917 43.2708 6.97917 43.2708 11.8646 40.4792 11.8646Z" transform="matrix(1 0 0 1.01493 773 117)"/><path d="M29.3125 6.97917 32.1042 6.97917 32.1042 11.8646 29.3125 11.8646Z" transform="matrix(1 0 0 1.01493 773 117)"/><path d="M18.1458 6.97917 20.9375 6.97917 20.9375 11.8646 18.1458 11.8646Z" transform="matrix(1 0 0 1.01493 773 117)"/><path d="M23.7292 6.97917 26.5208 6.97917 26.5208 11.8646 23.7292 11.8646Z" transform="matrix(1 0 0 1.01493 773 117)"/><path d="M23.7292 55.1354 26.5208 55.1354 26.5208 60.0208 23.7292 60.0208Z" transform="matrix(1 0 0 1.01493 773 117)"/><path d="M18.1458 55.1354 20.9375 55.1354 20.9375 60.0208 18.1458 60.0208Z" transform="matrix(1 0 0 1.01493 773 117)"/><path d="M29.3125 55.1354 32.1042 55.1354 32.1042 60.0208 29.3125 60.0208Z" transform="matrix(1 0 0 1.01493 773 117)"/><path d="M34.8958 55.1354 37.6875 55.1354 37.6875 60.0208 34.8958 60.0208Z" transform="matrix(1 0 0 1.01493 773 117)"/><path d="M40.4792 55.1354 43.2708 55.1354 43.2708 60.0208 40.4792 60.0208Z" transform="matrix(1 0 0 1.01493 773 117)"/><path d="M46.0625 55.1354 48.8542 55.1354 48.8542 60.0208 46.0625 60.0208Z" transform="matrix(1 0 0 1.01493 773 117)"/><path d="M24.4271 24.4271 42.5729 24.4271 42.5729 42.5729 24.4271 42.5729Z" transform="matrix(1 0 0 1.01493 773 117)"/><path d="M49.5521 14.6562 17.4479 14.6562C15.9061 14.6562 14.6562 15.9061 14.6562 17.4479L14.6562 49.5521C14.6562 51.0939 15.9061 52.3438 17.4479 52.3438L49.5521 52.3438C51.0939 52.3438 52.3438 51.0939 52.3438 49.5521L52.3438 17.4479C52.3438 15.9061 51.0939 14.6562 49.5521 14.6562ZM45.3646 45.3646 21.6354 45.3646 21.6354 21.6354 45.3646 21.6354Z" transform="matrix(1 0 0 1.01493 773 117)"/></g></svg>